<svg width="495" height="264" viewBox="0 0 495 264" fill="none" xmlns="http://www.w3.org/2000/svg">
<path d="M495 14.3747H0.210999V263.176H495V14.3747Z" fill="#D6D6D6"/>
<path d="M480.852 35.7099H14.3597V243.292H480.852V35.7099Z" fill="white"/>
<path d="M494.789 0H0V22.2748H494.789V0Z" fill="#6C63FF"/>
<path d="M15.6205 14.4317C17.7722 14.4317 19.5165 12.5833 19.5165 10.3032C19.5165 8.02304 17.7722 6.17463 15.6205 6.17463C13.4688 6.17463 11.7245 8.02304 11.7245 10.3032C11.7245 12.5833 13.4688 14.4317 15.6205 14.4317Z" fill="white"/>
<path d="M30.4085 14.4317C32.5602 14.4317 34.3045 12.5833 34.3045 10.3032C34.3045 8.02304 32.5602 6.17463 30.4085 6.17463C28.2568 6.17463 26.5125 8.02304 26.5125 10.3032C26.5125 12.5833 28.2568 14.4317 30.4085 14.4317Z" fill="white"/>
<path d="M45.1971 14.4317C47.3488 14.4317 49.0931 12.5833 49.0931 10.3032C49.0931 8.02304 47.3488 6.17463 45.1971 6.17463C43.0454 6.17463 41.3011 8.02304 41.3011 10.3032C41.3011 12.5833 43.0454 14.4317 45.1971 14.4317Z" fill="white"/>
<path d="M223.01 84.9731C222.509 84.9731 222.029 85.1839 221.675 85.559C221.321 85.9341 221.122 86.4428 221.122 86.9733C221.122 87.5037 221.321 88.0125 221.675 88.3876C222.029 88.7626 222.509 88.9734 223.01 88.9734H326.578C327.079 88.9734 327.559 88.7626 327.913 88.3876C328.267 88.0125 328.466 87.5037 328.466 86.9733C328.466 86.4428 328.267 85.9341 327.913 85.559C327.559 85.1839 327.079 84.9731 326.578 84.9731H223.01Z" fill="#D6D6D6"/>
<path d="M223.009 96.9748C222.51 96.976 222.03 97.1872 221.677 97.5622C221.324 97.9371 221.126 98.4452 221.126 98.9749C221.126 99.5047 221.324 100.013 221.677 100.388C222.03 100.763 222.51 100.974 223.009 100.975H275.883C276.383 100.974 276.862 100.763 277.215 100.388C277.568 100.013 277.767 99.5047 277.767 98.9749C277.767 98.4452 277.568 97.9371 277.215 97.5622C276.862 97.1872 276.383 96.976 275.883 96.9748H223.009Z" fill="#D6D6D6"/>
<path d="M220.403 155.066C219.903 155.066 219.423 155.277 219.069 155.652C218.715 156.027 218.516 156.536 218.516 157.066C218.516 157.597 218.715 158.105 219.069 158.48C219.423 158.855 219.903 159.066 220.403 159.066H414.595C415.096 159.066 415.576 158.855 415.93 158.48C416.284 158.105 416.483 157.597 416.483 157.066C416.483 156.536 416.284 156.027 415.93 155.652C415.576 155.277 415.096 155.066 414.595 155.066H220.403Z" fill="#D6D6D6"/>
<path d="M220.403 167.068C219.903 167.069 219.424 167.28 219.071 167.655C218.718 168.03 218.52 168.538 218.52 169.068C218.52 169.597 218.718 170.106 219.071 170.481C219.424 170.856 219.903 171.067 220.403 171.068H363.9C364.4 171.067 364.879 170.856 365.232 170.481C365.585 170.106 365.784 169.597 365.784 169.068C365.784 168.538 365.585 168.03 365.232 167.655C364.879 167.28 364.4 167.069 363.9 167.068H220.403Z" fill="#D6D6D6"/>
<path d="M220.403 178.798C219.903 178.799 219.424 179.01 219.071 179.385C218.718 179.76 218.52 180.268 218.52 180.798C218.52 181.328 218.718 181.836 219.071 182.211C219.424 182.586 219.903 182.797 220.403 182.798H414.595C415.095 182.797 415.574 182.586 415.927 182.211C416.28 181.836 416.479 181.328 416.479 180.798C416.479 180.268 416.28 179.76 415.927 179.385C415.574 179.01 415.095 178.799 414.595 178.798H220.403Z" fill="#D6D6D6"/>
<path d="M220.403 190.8C219.903 190.801 219.424 191.012 219.071 191.387C218.718 191.762 218.52 192.27 218.52 192.8C218.52 193.33 218.718 193.838 219.071 194.213C219.424 194.588 219.903 194.799 220.403 194.8H363.9C364.4 194.799 364.879 194.588 365.232 194.213C365.585 193.838 365.784 193.33 365.784 192.8C365.784 192.27 365.585 191.762 365.232 191.387C364.879 191.012 364.4 190.801 363.9 190.8H220.403Z" fill="#D6D6D6"/>
<path d="M118.878 163.183C127.955 163.183 135.314 155.386 135.314 145.767C135.314 136.148 127.955 128.35 118.878 128.35C109.801 128.35 102.443 136.148 102.443 145.767C102.443 155.386 109.801 163.183 118.878 163.183Z" fill="#A0616A"/>
<path d="M113.674 131.834C113.674 131.834 121.344 134.011 125.316 134.882C129.287 135.752 128.877 133.285 128.877 133.285C128.877 133.285 134.081 134.011 133.807 133.43C133.533 132.85 135.998 129.802 133.122 126.319C130.246 122.835 131.068 120.223 131.068 120.223H128.603L127.918 119.207H124.083C124.083 119.207 119.843 115.267 112.31 116.428C104.777 117.589 95.8689 120.658 95.0471 125.448C94.9357 126.097 94.7889 126.819 94.6185 127.581C92.5587 136.797 96.9353 145.419 101.475 153.577C102.59 155.581 107.986 159.953 107.848 156.954C107.71 153.954 102.991 147.218 106.278 146.783C109.565 146.347 115.18 137.494 113.674 131.834Z" fill="#2F2E41"/>
<path d="M109.555 202.071C106.382 201.802 103.236 201.254 100.149 200.433L100.322 196.96L101.761 169.344L101.774 169.132H130.725L135.268 194.56L135.881 197.99C134.682 198.485 133.47 198.951 132.231 199.36C132.217 199.36 132.217 199.374 132.204 199.374C130.486 199.939 128.74 200.433 126.981 200.842C124.642 201.377 122.276 201.764 119.893 202C118.052 202.194 116.202 202.288 114.351 202.282C112.752 202.283 111.14 202.212 109.555 202.071Z" fill="#6C63FF"/>
<path d="M90.9421 197.157C89.7432 196.607 88.5839 196.014 87.4383 195.393L86.9452 195.124C86.6121 194.941 86.266 194.743 85.9329 194.545C85.4794 194.277 85.0397 194.009 84.6136 193.741C84.2005 193.487 83.7744 193.218 83.3613 192.95C83.3346 192.936 83.3216 192.922 83.295 192.922C81.8559 191.948 80.4436 190.945 79.0847 189.858C78.8583 189.675 78.6317 189.491 78.4048 189.308L78.1654 185.242L78.5115 185.016L101.761 169.344L102.08 169.132L102.107 169.118L105.384 169.132V182.065C107.236 184.903 108.489 190.846 109.262 198.626C109.368 199.741 109.461 200.885 109.555 202.071C106.382 201.802 103.236 201.254 100.149 200.433C99.8156 200.362 99.4956 200.278 99.1625 200.179C97.2209 199.64 95.3084 198.99 93.4338 198.23C92.8606 198.005 92.3011 197.765 91.7417 197.525L91.6883 197.496C91.4482 197.383 91.1822 197.27 90.9421 197.157Z" fill="#2F2E41"/>
<path d="M85.9329 194.545C85.4795 194.277 85.0397 194.009 84.6136 193.741C84.2005 193.487 83.7744 193.218 83.3613 192.95C83.3346 192.936 83.3217 192.922 83.295 192.922C81.856 191.948 80.4436 190.945 79.0847 189.858C78.8583 189.675 78.6317 189.491 78.4049 189.308C78.2988 189.209 78.1921 189.124 78.0718 189.025C77.2195 188.333 76.3934 187.613 75.5939 186.851C75.5542 186.823 75.5274 186.78 75.4871 186.752C76.2945 186.094 77.1997 185.584 78.1654 185.241L79.1114 185.538L85.853 187.684L85.8927 190.578L85.9329 194.545Z" fill="#2F2E41"/>
<path d="M142.703 194.588C142.303 194.814 141.903 195.04 141.504 195.251C141.41 195.308 141.331 195.35 141.251 195.393C140.718 195.675 140.198 195.957 139.666 196.226C139.652 196.24 139.625 196.24 139.625 196.254C139.599 196.268 139.559 196.282 139.532 196.296C138.333 196.903 137.121 197.468 135.881 197.99C134.682 198.485 133.47 198.951 132.231 199.36C132.217 199.36 132.217 199.374 132.204 199.374C130.486 199.939 128.74 200.433 126.981 200.842C126.962 199.683 127.105 198.526 127.408 197.412L127.421 197.214L128.567 177.561L127.035 169.132L131.432 168.44L155.613 182.234C155.613 182.234 152.948 185.058 142.01 191.072C141.043 191.604 142.463 193.374 142.703 194.588Z" fill="#2F2E41"/>
<path d="M119.601 198.612C117.868 198.781 116.11 198.866 114.351 198.866C112.646 198.866 110.954 198.795 109.262 198.626C109.368 199.741 109.461 200.885 109.555 202.071C111.14 202.212 112.752 202.283 114.351 202.283C116.202 202.288 118.052 202.194 119.894 202C122.276 201.764 124.642 201.377 126.981 200.842C126.962 199.683 127.105 198.526 127.408 197.412L127.421 197.214C124.849 197.877 122.236 198.344 119.601 198.612ZM169.949 119.379C167.133 110.809 162.588 102.992 156.629 96.4752C150.67 89.958 143.441 84.8966 135.447 81.644C127.453 78.3913 118.885 77.0257 110.341 77.6424C101.798 78.2591 93.4839 80.8432 85.9796 85.2145C78.4753 89.5858 71.9611 95.6392 66.8912 102.952C61.8214 110.266 58.3179 118.663 56.6251 127.558C54.9324 136.454 55.0911 145.633 57.0901 154.457C59.0891 163.281 62.8804 171.537 68.1996 178.648C68.7324 179.354 69.2789 180.06 69.8384 180.738C69.8917 180.794 69.9184 180.837 69.9581 180.879C71.3336 182.56 72.797 184.158 74.3415 185.665C74.7149 186.032 75.1007 186.399 75.4871 186.752C75.5274 186.78 75.5541 186.823 75.5938 186.851C76.3933 187.613 77.2195 188.333 78.0717 189.025C78.1921 189.124 78.2988 189.209 78.4048 189.308C78.6318 189.491 78.8584 189.675 79.0846 189.858C80.4436 190.945 81.8559 191.948 83.2949 192.922C83.3216 192.922 83.3346 192.936 83.3613 192.95C83.7744 193.218 84.2005 193.487 84.6136 193.741C85.0403 194.009 85.4801 194.277 85.9329 194.546C86.266 194.743 86.6121 194.941 86.9451 195.124L87.4383 195.393C88.5839 196.014 89.7431 196.607 90.9421 197.158C91.1821 197.27 91.4482 197.383 91.6883 197.496L91.7416 197.525C92.3011 197.765 92.8606 198.005 93.4337 198.231C95.3084 198.99 97.2208 199.64 99.1624 200.179C99.4955 200.278 99.8156 200.362 100.149 200.433C103.236 201.254 106.382 201.802 109.555 202.071C111.14 202.212 112.752 202.283 114.351 202.283C116.202 202.288 118.052 202.194 119.893 202C122.276 201.764 124.642 201.377 126.981 200.842C128.74 200.433 130.486 199.939 132.204 199.374C132.217 199.374 132.217 199.36 132.231 199.36C133.47 198.951 134.682 198.485 135.881 197.99C137.121 197.468 138.333 196.903 139.532 196.296C139.559 196.282 139.599 196.268 139.625 196.254C139.625 196.24 139.652 196.24 139.665 196.226C140.198 195.957 140.717 195.675 141.251 195.393C141.331 195.35 141.41 195.308 141.504 195.252C141.903 195.04 142.303 194.814 142.703 194.588C142.73 194.574 142.743 194.56 142.769 194.546C143.822 193.924 144.861 193.275 145.887 192.583C146.167 192.4 146.447 192.216 146.727 192.004C147.14 191.736 147.539 191.44 147.925 191.143C148.445 190.762 148.964 190.367 149.471 189.957C149.64 189.843 149.8 189.715 149.951 189.576C151.19 188.588 152.389 187.543 153.535 186.442C162.223 178.237 168.421 167.486 171.342 155.549C174.264 143.612 173.779 131.024 169.949 119.379L169.949 119.379ZM152.535 182.799C151.093 184.237 149.581 185.594 148.006 186.865C147.66 187.147 147.299 187.43 146.94 187.684C146.593 187.966 146.247 188.235 145.887 188.489C145.581 188.715 145.275 188.941 144.955 189.152C144.928 189.181 144.888 189.195 144.862 189.223C144.634 189.392 144.395 189.548 144.169 189.703C143.462 190.169 142.73 190.635 142.01 191.072C141.837 191.171 141.677 191.284 141.504 191.383C141.41 191.44 141.317 191.496 141.211 191.552C140.811 191.793 140.411 192.004 140.012 192.23C139.958 192.272 139.892 192.287 139.839 192.329C139.819 192.332 139.8 192.342 139.785 192.357C139.506 192.513 139.226 192.654 138.946 192.795C138.706 192.922 138.48 193.049 138.24 193.162C137.267 193.656 136.268 194.122 135.269 194.56C134.216 195.011 133.15 195.421 132.071 195.802C131.804 195.901 131.525 196.014 131.245 196.099C129.979 196.522 128.714 196.903 127.421 197.214C124.849 197.877 122.236 198.344 119.601 198.612C117.868 198.781 116.11 198.866 114.352 198.866C112.646 198.866 110.954 198.795 109.262 198.626C106.243 198.333 103.253 197.776 100.322 196.96C100.215 196.932 100.095 196.903 99.9888 196.875C97.5842 196.211 95.2286 195.361 92.9407 194.334C92.821 194.277 92.6877 194.235 92.581 194.179C92.4476 194.122 92.3279 194.08 92.2212 194.023C92.0878 193.967 91.9681 193.91 91.8484 193.854C90.8492 193.388 89.8766 192.88 88.904 192.357L88.4506 192.103C87.5847 191.623 86.7319 191.129 85.8927 190.578C85.5999 190.409 85.2935 190.211 85.0001 190.014C84.667 189.802 84.334 189.576 84.0139 189.35C83.9345 189.293 83.8547 189.237 83.7745 189.181C83.0283 188.644 82.2691 188.107 81.5496 187.529C81.0435 187.133 80.5504 186.752 80.0573 186.343C79.7372 186.089 79.4178 185.82 79.1114 185.538C78.9117 185.383 78.712 185.199 78.5116 185.016C78.2455 184.776 77.9788 184.536 77.7127 184.281C77.2996 183.928 76.9132 183.533 76.5397 183.166C75.0396 181.701 73.6205 180.145 72.2897 178.507C71.837 177.97 71.4102 177.434 70.9978 176.869C70.9016 176.758 70.8124 176.64 70.731 176.516C64.0235 167.543 59.9254 156.696 58.9366 145.297C57.9478 133.898 60.111 122.441 65.1624 112.322C70.2138 102.204 77.935 93.8623 87.384 88.3149C96.8329 82.7676 107.601 80.2543 118.375 81.0818C129.149 81.9092 139.463 86.0416 148.058 92.9749C156.654 99.9081 163.159 109.342 166.781 120.127C170.403 130.911 170.984 142.579 168.455 153.708C165.925 164.837 160.394 174.945 152.535 182.799L152.535 182.799Z" fill="#3F3D56"/>
</svg>
