<svg width="444" height="357" viewBox="0 0 444 357" fill="none" xmlns="http://www.w3.org/2000/svg">
<g clip-path="url(#clip0_5_16)">
<path d="M0.579047 314.72C2.33797 300.568 11.1035 286.625 24.5923 282.019C19.2727 296.585 19.2739 312.564 24.5956 327.13C26.6683 332.74 29.5574 338.763 27.6078 344.417C26.3947 347.935 23.4271 350.626 20.11 352.309C16.7926 353.992 13.111 354.794 9.47554 355.58L8.76005 356.173C2.98874 343.133 -1.17987 328.871 0.579047 314.72Z" fill="#F0F0F0"/>
<path d="M24.7262 282.287C16.871 291.093 11.9887 302.152 10.7729 313.893C10.4663 316.416 10.5591 318.972 11.0478 321.466C11.6024 323.88 12.7929 326.101 14.4957 327.899C16.0498 329.608 17.8371 331.175 18.949 333.232C19.5026 334.293 19.8257 335.459 19.8972 336.654C19.9686 337.849 19.7868 339.046 19.3637 340.165C18.382 342.983 16.4471 345.279 14.4769 347.459C12.2894 349.879 9.97895 352.358 9.04909 355.567C8.93643 355.956 8.3401 355.758 8.45259 355.37C10.0704 349.787 15.4865 346.616 18.0695 341.588C19.2747 339.242 19.7806 336.518 18.6507 334.041C17.6627 331.876 15.8209 330.258 14.2325 328.542C12.5457 326.812 11.3078 324.695 10.627 322.377C10.0129 319.916 9.82186 317.368 10.0621 314.843C10.5122 309.149 11.8543 303.562 14.0391 298.285C16.4992 292.249 19.9732 286.679 24.3106 281.815C24.5792 281.514 24.9931 281.988 24.7262 282.287V282.287Z" fill="white"/>
<path d="M10.942 310.09C9.00089 309.618 7.29053 308.472 6.11633 306.855C4.94214 305.238 4.38057 303.256 4.53191 301.264C4.56391 300.86 5.1915 300.891 5.15945 301.295C5.0151 303.15 5.5384 304.996 6.63488 306.5C7.73136 308.003 9.32881 309.065 11.1389 309.493C11.5322 309.587 11.3329 310.183 10.942 310.09Z" fill="white"/>
<path d="M13.5937 327.137C17.0995 325.043 19.6876 321.703 20.8417 317.784C20.9558 317.396 21.5521 317.593 21.4382 317.981C20.2295 322.057 17.5292 325.527 13.8762 327.698C13.5279 327.905 13.2473 327.343 13.5937 327.137H13.5937Z" fill="white"/>
<path d="M17.0819 292.845C17.795 293.184 18.581 293.34 19.3695 293.3C20.1579 293.26 20.9241 293.025 21.5991 292.615C21.9447 292.404 22.225 292.967 21.8817 293.177C21.1337 293.626 20.2873 293.885 19.4162 293.931C18.5452 293.977 17.6762 293.809 16.885 293.442C16.8075 293.413 16.7437 293.356 16.7066 293.283C16.6695 293.209 16.6619 293.124 16.6852 293.045C16.7117 292.966 16.7682 292.901 16.8425 292.863C16.9168 292.826 17.0028 292.819 17.0819 292.845Z" fill="white"/>
<path d="M65.7083 307.296C65.4963 307.434 65.2842 307.572 65.072 307.715C62.2312 309.584 59.5469 311.681 57.0455 313.985C56.8492 314.16 56.653 314.34 56.4622 314.521C50.495 320.136 45.6216 326.811 42.0896 334.206C40.6869 337.15 39.51 340.197 38.5693 343.319C37.2703 347.632 36.2047 352.412 33.6334 355.939C33.3693 356.31 33.0824 356.664 32.7745 357H9.53747C9.48466 356.973 9.4316 356.952 9.37853 356.926L8.45074 356.968C8.48802 356.804 8.53021 356.634 8.56749 356.47C8.5887 356.374 8.61513 356.279 8.63635 356.183C8.65214 356.119 8.66819 356.056 8.67881 355.997C8.68398 355.976 8.68941 355.955 8.6946 355.939C8.7052 355.881 8.72127 355.828 8.73188 355.775C8.96512 354.825 9.20544 353.876 9.45282 352.926C9.45282 352.921 9.45283 352.921 9.458 352.915C11.3615 345.685 13.8849 338.551 17.4104 332.026C17.5166 331.83 17.6224 331.628 17.7392 331.432C19.3446 328.5 21.1869 325.704 23.2476 323.072C24.3807 321.634 25.5857 320.255 26.8581 318.939C30.1523 315.547 33.9594 312.693 38.1398 310.484C46.4741 306.081 56.1229 304.394 65.0298 307.084C65.2575 307.153 65.4804 307.222 65.7083 307.296Z" fill="#F0F0F0"/>
<path d="M65.656 307.591C54.0848 309.89 43.532 315.779 35.4963 324.421C33.7334 326.251 32.2698 328.348 31.1593 330.633C30.1495 332.895 29.7633 335.386 30.041 337.847C30.2538 340.147 30.7377 342.476 30.388 344.787C30.1915 345.968 29.7476 347.094 29.0857 348.091C28.4238 349.088 27.5586 349.934 26.5471 350.573C24.068 352.231 21.1412 352.899 18.2565 353.453C15.0535 354.068 11.7169 354.655 9.04366 356.657C8.71977 356.9 8.36257 356.383 8.68597 356.14C13.3369 352.658 19.5695 353.389 24.6574 350.93C27.0316 349.783 29.0745 347.912 29.6626 345.254C30.1769 342.93 29.68 340.529 29.4443 338.201C29.1383 335.804 29.4235 333.368 30.2752 331.107C31.2657 328.772 32.6462 326.623 34.3575 324.751C38.1429 320.476 42.5766 316.824 47.4961 313.927C53.0923 310.59 59.2179 308.235 65.6077 306.964C66.0033 306.886 66.0489 307.513 65.656 307.591H65.656Z" fill="white"/>
<path d="M37.9201 321.486C36.6539 319.941 35.9782 317.995 36.0136 315.997C36.0489 313.998 36.793 312.078 38.113 310.578C38.3812 310.275 38.8637 310.678 38.5952 310.981C37.3635 312.375 36.6705 314.164 36.6414 316.025C36.6123 317.886 37.2489 319.696 38.4364 321.128C38.6941 321.44 38.1763 321.796 37.9201 321.486H37.9201Z" fill="white"/>
<path d="M29.7796 336.695C33.8391 337.135 37.9151 336.027 41.1947 333.593C41.5195 333.352 41.8768 333.869 41.5524 334.11C38.1348 336.636 33.8908 337.78 29.6674 337.313C29.2649 337.269 29.3793 336.651 29.7796 336.695Z" fill="white"/>
<path d="M53.1994 311.416C53.5647 312.116 54.0981 312.715 54.7517 313.158C55.4054 313.601 56.1587 313.874 56.9442 313.954C57.347 313.994 57.2322 314.612 56.832 314.572C55.9646 314.48 55.1329 314.177 54.4097 313.689C53.6864 313.201 53.0936 312.544 52.683 311.774C52.6382 311.704 52.6215 311.621 52.6362 311.539C52.6509 311.458 52.696 311.386 52.7623 311.337C52.8309 311.29 52.9153 311.271 52.9972 311.286C53.079 311.301 53.1517 311.348 53.1994 311.416Z" fill="white"/>
<path d="M394.466 33.5341C375.274 13.1458 348.853 1.10516 320.883 0V107.159L394.466 33.5341Z" fill="#3F3D56"/>
<path d="M394.466 46.8768L320.883 120.502H423.718C423.754 93.1167 413.283 66.7626 394.466 46.8768Z" fill="#E4E4E4"/>
<path d="M423.827 128.202C423.832 134.881 423.214 141.546 421.982 148.11C421.887 148.63 421.786 149.144 421.68 149.659C419.358 161.109 415.167 172.099 409.274 182.187C408.962 182.728 408.638 183.269 408.315 183.799V183.805C402.508 193.365 395.245 201.961 386.79 209.283C386.371 209.649 385.952 210.009 385.528 210.365C367.358 225.66 344.609 234.456 320.88 235.36V128.202H423.827Z" fill="#F0F0F0"/>
<path d="M310.48 235.454C311.903 235.454 313.318 235.417 314.728 235.362V128.199L236.839 206.132C256.72 224.993 283.083 235.49 310.48 235.454Z" fill="#CACACA"/>
<path d="M310.625 13.2471C251.424 13.2471 203.431 61.2665 203.431 120.502H314.985V13.3427C313.538 13.2847 312.086 13.2471 310.625 13.2471Z" fill="#6C63FF"/>
<path d="M285.052 128.202L262.515 150.752L261.778 151.489L261.762 151.505L242.109 171.164L241.362 171.912L220.129 193.157L219.381 193.905V193.91L207.161 206.132C196.55 196.12 188.099 184.041 182.329 170.639C176.558 157.237 173.59 142.795 173.607 128.202H285.052Z" fill="#6C63FF"/>
<path d="M110.206 225.815C111.026 225.317 111.727 224.646 112.259 223.848C112.792 223.049 113.143 222.144 113.288 221.195C113.433 220.247 113.368 219.278 113.099 218.357C112.829 217.436 112.361 216.585 111.727 215.865L112.611 167.626L102.046 168.512L102.07 215.54C100.931 216.685 100.252 218.209 100.161 219.822C100.07 221.436 100.574 223.026 101.576 224.293C102.579 225.56 104.011 226.414 105.602 226.695C107.192 226.975 108.83 226.662 110.206 225.815Z" fill="#FFB6B6"/>
<path d="M114.277 179.434L100.459 178.116C100.066 178.078 99.6852 177.957 99.3433 177.759C99.0015 177.561 98.7063 177.292 98.4778 176.969C98.2493 176.647 98.093 176.279 98.0194 175.891C97.9459 175.502 97.9568 175.103 98.0514 174.719L101.37 161.276C101.573 159.265 102.565 157.416 104.129 156.135C105.692 154.854 107.7 154.246 109.711 154.444C111.722 154.642 113.572 155.629 114.857 157.19C116.141 158.751 116.754 160.758 116.562 162.771L117.283 176.554C117.303 176.949 117.239 177.343 117.093 177.71C116.947 178.078 116.724 178.409 116.439 178.683C116.154 178.956 115.813 179.165 115.44 179.294C115.067 179.424 114.67 179.472 114.277 179.434H114.277Z" fill="#E4E4E4"/>
<path d="M91.2944 351.32H96.6559L99.2065 330.628L91.2933 330.628L91.2944 351.32Z" fill="#FFB6B6"/>
<path d="M89.9266 349.569L100.486 349.568H100.486C102.271 349.569 103.982 350.278 105.244 351.541C106.506 352.803 107.215 354.516 107.215 356.301V356.52L89.9269 356.521L89.9266 349.569Z" fill="#2F2E41"/>
<path d="M140.713 351.32H146.075L148.626 330.628L140.713 330.628L140.713 351.32Z" fill="#FFB6B6"/>
<path d="M139.346 349.569L149.905 349.568H149.906C151.69 349.569 153.402 350.278 154.664 351.541C155.926 352.803 156.635 354.516 156.635 356.301V356.52L139.346 356.521L139.346 349.569Z" fill="#2F2E41"/>
<path d="M134.24 185.082L137.739 207.399L104.501 207.837L108.874 186.395L134.24 185.082Z" fill="#FFB6B6"/>
<path d="M136.774 201.95C147.321 220.331 148.221 282.659 148.672 347.034H139.707L118.277 253.127L98.5968 344.582H89.85L95.9727 241.749C95.9727 241.749 94.1672 221.11 103.407 208.93L105.657 202.429L136.774 201.95Z" fill="#2F2E41"/>
<path d="M110.015 197.407C109.82 197.407 109.627 197.388 109.437 197.35C108.797 197.222 108.216 196.888 107.784 196.399C107.352 195.909 107.091 195.292 107.042 194.641C106.714 190.137 105.085 182.297 102.201 171.339C101.227 167.614 101.443 163.678 102.817 160.083C104.192 156.487 106.657 153.412 109.866 151.288C113.075 149.165 116.868 148.099 120.713 148.241C124.558 148.383 128.262 149.726 131.306 152.08C133.255 153.574 134.882 155.447 136.089 157.587C137.295 159.726 138.056 162.088 138.326 164.53C139.76 177.16 137.057 189.841 135.829 194.706C135.668 195.342 135.303 195.906 134.79 196.314C134.277 196.722 133.645 196.95 132.99 196.964L110.078 197.407C110.057 197.407 110.036 197.407 110.015 197.407Z" fill="#E4E4E4"/>
<path d="M174.025 156.891C173.888 157.2 173.775 157.519 173.687 157.845L145.008 167.596L139.467 162.752L131.068 170.165L140.045 179.694C140.77 180.464 141.725 180.977 142.767 181.158C143.809 181.338 144.881 181.176 145.823 180.694L176.511 165.01C177.621 165.691 178.912 166.018 180.212 165.947C181.512 165.877 182.759 165.411 183.789 164.614C184.818 163.816 185.58 162.724 185.974 161.482C186.368 160.241 186.375 158.909 185.993 157.663C185.612 156.418 184.861 155.318 183.84 154.51C182.818 153.702 181.575 153.224 180.276 153.141C178.977 153.057 177.683 153.371 176.566 154.04C175.45 154.71 174.564 155.705 174.025 156.891Z" fill="#FFB6B6"/>
<path d="M144.009 168.129L133.554 177.266C133.257 177.526 132.907 177.718 132.528 177.831C132.149 177.943 131.751 177.973 131.36 177.917C130.969 177.862 130.594 177.723 130.262 177.509C129.929 177.296 129.647 177.013 129.433 176.681L121.956 165.029C120.635 163.499 119.974 161.507 120.119 159.491C120.264 157.474 121.202 155.597 122.728 154.271C124.254 152.946 126.243 152.279 128.259 152.419C130.275 152.558 132.154 153.492 133.483 155.015L143.984 163.965C144.284 164.222 144.526 164.54 144.693 164.898C144.859 165.256 144.947 165.646 144.949 166.041C144.951 166.437 144.869 166.828 144.706 167.188C144.544 167.548 144.306 167.869 144.009 168.129Z" fill="#E4E4E4"/>
<path d="M129.966 138.082C133.689 131.267 131.186 122.724 124.376 118.999C117.565 115.274 109.026 117.778 105.303 124.592C101.581 131.406 104.083 139.95 110.894 143.675C117.704 147.4 126.243 144.896 129.966 138.082Z" fill="#FFB6B6"/>
<path d="M121.503 111.874H118.654C117.286 111.446 115.861 111.229 114.427 111.23C114.191 111.23 113.956 111.236 113.723 111.248C111.059 111.416 108.511 112.402 106.428 114.073C104.345 115.744 102.828 118.017 102.085 120.583C98.8988 131.225 100.275 143.001 100.275 143.001C104.926 145.105 112.035 146.663 122.533 145.382L124.077 138.907L123.948 145.189C125.428 144.983 126.971 144.717 128.58 144.391V130.54H135.012C135.012 120.229 131.809 111.874 121.503 111.874Z" fill="#2F2E41"/>
<path d="M442.675 236.055H240.683C240.542 236.055 240.407 235.999 240.308 235.9C240.209 235.8 240.153 235.665 240.153 235.524C240.153 235.384 240.209 235.249 240.308 235.149C240.407 235.05 240.542 234.994 240.683 234.994H442.675C442.815 234.994 442.95 235.05 443.049 235.149C443.149 235.249 443.205 235.384 443.205 235.524C443.205 235.665 443.149 235.8 443.049 235.9C442.95 235.999 442.815 236.055 442.675 236.055Z" fill="#F0F0F0"/>
<path d="M442.94 303.689V101.583C442.94 101.443 442.996 101.308 443.095 101.208C443.194 101.109 443.329 101.053 443.47 101.053C443.61 101.053 443.745 101.109 443.845 101.208C443.944 101.308 444 101.443 444 101.583V303.689C444 303.829 443.944 303.964 443.845 304.064C443.745 304.163 443.61 304.219 443.47 304.219C443.329 304.219 443.194 304.163 443.095 304.064C442.996 303.964 442.94 303.829 442.94 303.689Z" fill="#F0F0F0"/>
<path d="M412.72 263.109C417.405 263.109 421.203 259.309 421.203 254.621C421.203 249.934 417.405 246.134 412.72 246.134C408.036 246.134 404.238 249.934 404.238 254.621C404.238 259.309 408.036 263.109 412.72 263.109Z" fill="#F0F0F0"/>
<path d="M206.487 23.8707C211.172 23.8707 214.97 20.0708 214.97 15.3834C214.97 10.6959 211.172 6.896 206.487 6.896C201.803 6.896 198.005 10.6959 198.005 15.3834C198.005 20.0708 201.803 23.8707 206.487 23.8707Z" fill="#F0F0F0"/>
<path d="M203.052 356.47C203.052 356.539 203.039 356.608 203.012 356.673C202.986 356.737 202.947 356.796 202.897 356.845C202.848 356.894 202.789 356.934 202.725 356.96C202.661 356.987 202.592 357 202.522 357H0.530162C0.389554 357 0.254705 356.944 0.15528 356.845C0.0558558 356.745 0 356.61 0 356.47C0 356.329 0.0558558 356.194 0.15528 356.094C0.254705 355.995 0.389554 355.939 0.530162 355.939H202.522C202.592 355.939 202.661 355.952 202.725 355.979C202.789 356.006 202.848 356.045 202.897 356.094C202.947 356.143 202.986 356.202 203.012 356.266C203.039 356.331 203.052 356.4 203.052 356.47Z" fill="#CACACA"/>
<path d="M219.381 193.909C201.793 176.48 191.516 152.993 190.647 128.24L192.766 128.164C193.616 152.378 203.67 175.355 220.876 192.404L219.381 193.909Z" fill="#3F3D56"/>
<path d="M242.13 171.185L240.593 172.638C228.876 160.259 220.607 145.024 216.608 128.451L217.637 128.202H218.729C222.661 144.311 230.719 159.117 242.109 171.164L242.13 171.185Z" fill="#3F3D56"/>
<path d="M262.573 150.826L261.778 151.489L261.762 151.505L260.946 152.184C254.997 145.065 250.095 137.132 246.387 128.626L247.358 128.202H248.519C252.11 136.335 256.821 143.925 262.515 150.752C262.533 150.778 262.552 150.802 262.573 150.826Z" fill="#3F3D56"/>
</g>
<defs>
<clipPath id="clip0_5_16">
<rect width="444" height="357" fill="white"/>
</clipPath>
</defs>
</svg>
