<svg width="37" height="37" viewBox="0 0 37 37" fill="none" xmlns="http://www.w3.org/2000/svg">
<path d="M27.3239 35.8717C27.3239 36.4948 26.8189 37 26.1959 37H10.7041C10.0811 37 9.57608 36.4948 9.57608 35.8717V33.4646C9.57608 32.8414 10.0811 32.3362 10.7041 32.3362H26.1959C26.8189 32.3362 27.3239 32.8414 27.3239 33.4646V35.8717ZM36.511 5.19364C36.0633 4.88598 35.4603 4.94044 35.0754 5.32453L24.0222 16.3491L19.5847 0.818267C19.4463 0.333836 19.0037 0 18.4999 0C17.9962 0 17.5537 0.334137 17.4154 0.818418L12.9781 16.3616L1.9251 5.32272C1.54051 4.93864 0.937237 4.88373 0.48948 5.19123C0.0415718 5.49889 -0.123273 6.08217 0.0970715 6.57893L10.0238 28.9575C10.2048 29.3654 10.6089 29.6282 11.0549 29.6282H25.945C26.3911 29.6282 26.7951 29.3654 26.976 28.9575L36.9028 6.58134C37.1233 6.08457 36.9585 5.50145 36.511 5.19364Z" fill="#E8B451"/>
</svg>
