<svg width="412" height="387" viewBox="0 0 412 387" fill="none" xmlns="http://www.w3.org/2000/svg">
<path d="M135.625 129.941H74.375C71.96 129.941 70 127.785 70 125.128C70 122.472 70 31.5348 70 28.8783C70 26.2218 71.96 24.0658 74.375 24.0658H135.625C138.04 24.0658 140 26.2218 140 28.8783V125.128C140 127.785 138.04 129.941 135.625 129.941Z" fill="#ECEFF1"/>
<path d="M91.875 52.9408H74.375C71.96 52.9408 70 50.7848 70 48.1283C70 45.4718 71.96 43.3158 74.375 43.3158H91.875C94.29 43.3158 96.25 45.4718 96.25 48.1283C96.25 50.7848 94.29 52.9408 91.875 52.9408Z" fill="#141A26"/>
<path d="M91.875 72.1908H74.375C71.96 72.1908 70 70.0348 70 67.3783C70 64.7218 71.96 62.5658 74.375 62.5658H91.875C94.29 62.5658 96.25 64.7218 96.25 67.3783C96.25 70.0348 94.29 72.1908 91.875 72.1908Z" fill="#141A26"/>
<path d="M91.875 91.4408H74.375C71.96 91.4408 70 89.2848 70 86.6283C70 83.9718 71.96 81.8158 74.375 81.8158H91.875C94.29 81.8158 96.25 83.9718 96.25 86.6283C96.25 89.2848 94.29 91.4408 91.875 91.4408Z" fill="#141A26"/>
<path d="M91.875 110.691H74.375C71.96 110.691 70 108.535 70 105.878C70 103.222 71.96 101.066 74.375 101.066H91.875C94.29 101.066 96.25 103.222 96.25 105.878C96.25 108.535 94.29 110.691 91.875 110.691Z" fill="#141A26"/>
<path d="M118.125 52.9408H109.375C106.96 52.9408 105 50.7848 105 48.1283C105 45.4718 106.96 43.3158 109.375 43.3158H118.125C120.54 43.3158 122.5 45.4718 122.5 48.1283C122.5 50.7848 120.54 52.9408 118.125 52.9408Z" fill="#141A26"/>
<path d="M118.125 72.1908H109.375C106.96 72.1908 105 70.0348 105 67.3783C105 64.7218 106.96 62.5658 109.375 62.5658H118.125C120.54 62.5658 122.5 64.7218 122.5 67.3783C122.5 70.0348 120.54 72.1908 118.125 72.1908Z" fill="#141A26"/>
<path d="M118.125 91.4408H109.375C106.96 91.4408 105 89.2848 105 86.6283C105 83.9718 106.96 81.8158 109.375 81.8158H118.125C120.54 81.8158 122.5 83.9718 122.5 86.6283C122.5 89.2848 120.54 91.4408 118.125 91.4408Z" fill="#141A26"/>
<path d="M118.125 110.691H109.375C106.96 110.691 105 108.535 105 105.878C105 103.222 106.96 101.066 109.375 101.066H118.125C120.54 101.066 122.5 103.222 122.5 105.878C122.5 108.535 120.54 110.691 118.125 110.691Z" fill="#141A26"/>
<path d="M77.1663 5.94911C76.1688 5.03474 74.83 4.64011 73.57 4.92886L3.57 19.3664C1.49625 19.7899 0 21.7726 0 24.0922V129.967C0 132.277 1.49625 134.27 3.57 134.693L73.57 149.131C73.8325 149.188 74.1038 149.217 74.375 149.217C75.39 149.217 76.3788 148.832 77.1663 148.11C78.1725 147.196 78.75 145.829 78.75 144.405V9.65474C78.75 8.22061 78.1725 6.86349 77.1663 5.94911Z" fill="#6C63FF"/>
<path d="M60.165 93.0867L46.3313 75.6943L60.3225 55.9053C61.81 53.8071 61.46 50.7848 59.5613 49.1486C57.6625 47.5123 54.915 47.8973 53.4188 49.9859L40.46 68.3119L29.54 54.5867C27.9388 52.5654 25.1738 52.3826 23.3713 54.1343C21.5513 55.8861 21.3675 58.9276 22.96 60.9199L34.9913 76.0504L22.7938 93.2984C21.3063 95.3967 21.6563 98.4189 23.555 100.055C24.36 100.739 25.3138 101.066 26.25 101.066C27.5538 101.066 28.84 100.431 29.7063 99.2082L40.8625 83.4232L53.585 99.4103C54.4513 100.508 55.6588 101.066 56.875 101.066C57.8988 101.066 58.9225 100.671 59.7538 99.8723C61.5738 98.1206 61.7575 95.0791 60.165 93.0867Z" fill="#FAFAFA"/>
<path d="M205.625 257.066H144.375C141.96 257.066 140 259.222 140 261.878V358.128C140 360.785 141.96 362.941 144.375 362.941H205.625C208.04 362.941 210 360.785 210 358.128V261.878C210 259.222 208.04 257.066 205.625 257.066Z" fill="#ECEFF1"/>
<path d="M188.125 343.691H144.375C141.96 343.691 140 341.535 140 338.878C140 336.222 141.96 334.066 144.375 334.066H188.125C190.54 334.066 192.5 336.222 192.5 338.878C192.5 341.535 190.54 343.691 188.125 343.691Z" fill="#6C63FF"/>
<path d="M166.25 276.316C154.166 276.316 144.375 287.086 144.375 300.378C144.375 313.67 154.166 324.441 166.25 324.441C178.334 324.441 188.125 313.67 188.125 300.378H166.25V276.316Z" fill="#6C63FF"/>
<path d="M175 266.691V290.753H196.875C196.875 277.461 187.084 266.691 175 266.691Z" fill="#6C63FF"/>
<path d="M147.166 238.923C146.169 238.008 144.83 237.614 143.57 237.902L73.57 252.34C71.4962 252.763 70 254.746 70 257.066V362.941C70 365.251 71.4962 367.243 73.57 367.667L143.57 382.104C143.832 382.162 144.104 382.191 144.375 382.191C145.39 382.191 146.379 381.806 147.166 381.084C148.173 380.17 148.75 378.803 148.75 377.378V242.628C148.75 241.194 148.173 239.837 147.166 238.923Z" fill="#6C63FF"/>
<path d="M100.625 343.691C98.21 343.691 96.25 341.535 96.25 338.878V290.753C96.25 288.097 98.21 285.941 100.625 285.941H113.75C123.401 285.941 131.25 294.574 131.25 305.191C131.25 315.807 123.401 324.441 113.75 324.441H105V338.878C105 341.535 103.04 343.691 100.625 343.691ZM105 314.816H113.75C118.571 314.816 122.5 310.494 122.5 305.191C122.5 299.887 118.571 295.566 113.75 295.566H105V314.816Z" fill="#FAFAFA"/>
<path fill-rule="evenodd" clip-rule="evenodd" d="M285.915 92C279.48 92 274.263 97.467 274.263 104.209V233.764C274.263 240.509 279.48 245.974 285.915 245.974H391.053C397.486 245.974 402.707 240.509 402.707 233.764V140.871L359.289 92H285.915V92Z" fill="#6C63FF"/>
<path d="M320.828 195.943C321.117 196.289 321.283 196.722 321.283 197.199C321.283 198.108 320.58 198.931 319.668 198.931C319.255 198.931 318.8 198.758 318.51 198.368C316.898 196.333 314.167 195.031 311.604 195.031C305.565 195.031 300.976 199.884 300.976 206.773C300.976 213.619 305.567 218.513 311.604 218.513C314.208 218.513 316.772 217.344 318.51 215.219C318.797 214.873 319.255 214.659 319.668 214.659C320.621 214.659 321.283 215.522 321.283 216.434C321.283 216.868 321.117 217.301 320.828 217.647C318.676 219.986 315.74 221.721 311.606 221.721C303.666 221.721 297.42 215.655 297.42 206.773C297.42 197.892 303.666 191.826 311.606 191.826C315.74 191.828 318.717 193.561 320.828 195.943ZM336.451 221.723C332.358 221.723 329.131 220.294 326.774 218.126C326.402 217.779 326.237 217.303 326.237 216.827C326.237 215.958 326.857 215.005 327.849 215.005C328.18 215.005 328.552 215.092 328.842 215.352C330.743 217.13 333.389 218.513 336.575 218.513C341.497 218.513 343.069 215.741 343.069 213.53C343.069 206.078 326.733 210.195 326.733 199.882C326.733 195.117 330.785 191.867 336.203 191.867C339.759 191.867 342.82 192.99 345.053 194.942C345.425 195.288 345.632 195.765 345.632 196.241C345.632 197.107 344.929 197.974 344.017 197.974C343.686 197.974 343.314 197.844 343.025 197.584C340.999 195.851 338.477 195.072 335.953 195.072C332.645 195.072 330.286 196.934 330.286 199.665C330.286 206.165 346.622 202.437 346.622 213.227C346.624 217.433 343.895 221.723 336.451 221.723ZM375.484 194.643L365.932 219.512C365.477 220.681 364.358 221.461 363.203 221.461H363.12C361.921 221.461 360.805 220.681 360.348 219.512L350.834 194.643C350.752 194.427 350.71 194.21 350.71 193.95C350.71 193.084 351.452 192.042 352.571 192.042C353.274 192.042 353.935 192.475 354.224 193.212L363.157 217.255L372.09 193.212C372.338 192.519 372.999 192.042 373.743 192.042C374.818 192.042 375.604 192.952 375.604 193.95C375.606 194.167 375.565 194.427 375.484 194.643Z" fill="white"/>
<path fill-rule="evenodd" clip-rule="evenodd" d="M402.815 140.984V143.39H373.415C373.415 143.39 358.917 140.358 359.34 127.252C359.34 127.252 359.817 140.984 373.128 140.984H402.815Z" fill="#6C63FF"/>
<path opacity="0.5" fill-rule="evenodd" clip-rule="evenodd" d="M359.397 92.0145V127.052C359.397 131.037 361.933 140.986 373.417 140.986H402.817L359.397 92.0145Z" fill="white"/>
</svg>
