<svg width="475" height="414" viewBox="0 0 475 414" fill="none" xmlns="http://www.w3.org/2000/svg">
<g clip-path="url(#clip0_14_244)">
<path d="M442.652 413.529V368.679C442.652 368.679 460.143 400.476 442.652 413.529Z" fill="#F1F1F1"/>
<path d="M443.733 413.521L410.67 383.19C410.67 383.19 445.939 391.818 443.733 413.521Z" fill="#F1F1F1"/>
<path d="M167.65 79.844H165.803V29.2706C165.803 21.5075 162.717 14.0624 157.224 8.57315C151.731 3.08386 144.281 4.93309e-06 136.512 0H29.2909C25.4444 -8.95605e-06 21.6355 0.757086 18.0818 2.22806C14.5281 3.69904 11.2991 5.85509 8.57914 8.5731C5.85922 11.2911 3.70167 14.5179 2.22966 18.0691C0.757645 21.6204 6.51807e-06 25.4266 0 29.2705V306.721C-6.58191e-06 314.484 3.08598 321.929 8.57908 327.418C14.0722 332.907 21.5224 335.991 29.2908 335.991H136.512C144.28 335.991 151.731 332.907 157.224 327.418C162.717 321.929 165.803 314.484 165.803 306.721V115.843H167.65V79.844Z" fill="#3F3D56"/>
<path d="M137.694 7.61519H123.698C124.342 9.19208 124.587 10.9029 124.413 12.5971C124.24 14.2912 123.651 15.9166 122.701 17.3301C121.75 18.7436 120.466 19.9017 118.962 20.7026C117.458 21.5034 115.78 21.9224 114.076 21.9225H52.6505C50.9463 21.9224 49.2683 21.5034 47.7643 20.7026C46.2603 19.9017 44.9764 18.7435 44.0258 17.3301C43.0752 15.9166 42.4871 14.2912 42.3132 12.5971C42.1393 10.9029 42.385 9.19207 43.0286 7.61517H29.9564C27.0839 7.61517 24.2394 8.18056 21.5856 9.27907C18.9317 10.3776 16.5203 11.9877 14.4891 14.0175C12.4579 16.0473 10.8466 18.457 9.74735 21.109C8.64807 23.7611 8.08228 26.6035 8.08228 29.4741V306.517C8.08227 309.388 8.64806 312.23 9.74733 314.882C10.8466 317.534 12.4578 319.944 14.489 321.974C16.5202 324.003 18.9316 325.613 21.5855 326.712C24.2394 327.811 27.0838 328.376 29.9564 328.376H137.694C143.495 328.376 149.059 326.073 153.161 321.974C157.263 317.874 159.568 312.314 159.568 306.517V29.4741C159.568 26.6036 159.002 23.7611 157.903 21.1091C156.804 18.457 155.192 16.0473 153.161 14.0175C151.13 11.9877 148.719 10.3776 146.065 9.27909C143.411 8.18058 140.566 7.61519 137.694 7.61519Z" fill="white"/>
<path d="M83.8251 214.321C112.761 214.321 136.218 190.88 136.218 161.964C136.218 133.049 112.761 109.608 83.8251 109.608C54.8894 109.608 31.4323 133.049 31.4323 161.964C31.4323 190.88 54.8894 214.321 83.8251 214.321Z" fill="#6C63FF"/>
<path d="M99.3504 165.542L86.3214 178.953C86.0379 179.238 85.6991 179.463 85.3258 179.613C84.9524 179.763 84.5523 179.836 84.1499 179.827H84.1066C83.7033 179.836 83.3024 179.763 82.9281 179.612C82.5538 179.462 82.2139 179.238 81.9287 178.953L68.9061 165.542C68.8628 165.492 68.8131 165.449 68.7695 165.406C68.2498 164.848 67.9723 164.108 67.9979 163.347C68.0235 162.586 68.3501 161.866 68.9061 161.345C69.5008 160.786 70.2863 160.475 71.1024 160.475C71.9186 160.475 72.7041 160.786 73.2988 161.345L81.0169 169.405V148.622C81.0528 147.822 81.3963 147.066 81.9759 146.512C82.5554 145.958 83.3264 145.649 84.1283 145.649C84.9301 145.649 85.7011 145.958 86.2806 146.512C86.8602 147.066 87.2037 147.822 87.2396 148.622V169.405L94.9517 161.345C95.5476 160.786 96.334 160.475 97.151 160.475C97.9681 160.475 98.7545 160.786 99.3504 161.345C99.394 161.388 99.4374 161.431 99.487 161.481C100.005 162.039 100.282 162.779 100.256 163.54C100.231 164.3 99.9051 165.02 99.3504 165.542Z" fill="white"/>
<path d="M366.213 405.033L358.606 405.032L354.988 375.714L366.214 375.714L366.213 405.033Z" fill="#9F616A"/>
<path d="M368.153 412.401L343.627 412.4V412.09C343.627 409.56 344.633 407.134 346.423 405.345C348.213 403.556 350.641 402.551 353.173 402.551H353.174L368.153 402.551L368.153 412.401Z" fill="#363636"/>
<path d="M308.428 404.783L301.08 402.819L305.162 373.561L316.007 376.459L308.428 404.783Z" fill="#9F616A"/>
<path d="M308.398 412.401L284.704 406.07L284.784 405.77C285.438 403.326 287.037 401.242 289.229 399.975C291.421 398.709 294.026 398.365 296.472 399.018L296.473 399.018L310.944 402.886L308.398 412.401Z" fill="#363636"/>
<path d="M370.589 240.726L376.96 248.123L368.72 398.437H351.12L342.246 282.776L314.732 401.539L296.435 397.054L313.072 246.209L370.589 240.726Z" fill="#363636"/>
<path d="M317.326 143.681L334.85 134.897L361.8 135.37L384.991 147.229L371.796 213.082L377.496 247.417H377.496C355.466 253.031 332.402 253.221 310.282 247.97L310.105 247.928C310.105 247.928 323.205 201.48 317.629 187.305L317.326 143.681Z" fill="#CBCBCB"/>
<path d="M368.024 108.584C368.005 103.328 365.899 98.2947 362.17 94.5886C358.441 90.8824 353.392 88.8063 348.132 88.8161C342.873 88.8258 337.832 90.9205 334.116 94.6404C330.401 98.3604 328.314 103.402 328.314 108.657C328.314 113.913 330.401 118.955 334.116 122.674C337.832 126.394 342.873 128.489 348.132 128.499C353.392 128.509 358.441 126.433 362.17 122.726C365.899 119.02 368.005 113.987 368.024 108.731C368.024 108.682 368.024 108.633 368.024 108.584Z" fill="#9F616A"/>
<path d="M339.278 97.2466C340.306 96.2792 341.661 95.7332 343.073 95.7167C345.194 95.6478 348.373 96.4006 349.726 98.1239C350.813 99.5089 350.865 101.414 350.869 103.175L350.88 108.033C350.884 109.47 350.901 110.969 351.555 112.249C352.208 113.53 353.708 114.502 355.079 114.066C356.704 113.548 357.419 111.389 359.08 111.001C360.328 110.709 361.61 111.62 362.155 112.779C362.616 113.98 362.768 115.277 362.599 116.552C362.442 119.096 358.791 120.105 358.274 122.601C357.975 124.045 356.928 126.924 358.274 126.321C364.478 125.701 367.201 122.08 370.041 118.671L376.445 110.982C377.177 110.219 377.739 109.31 378.095 108.315C378.254 107.617 378.311 106.901 378.264 106.188C378.229 104.277 378.177 102.366 378.108 100.456C378.048 98.7873 377.628 96.6818 375.993 96.3388C375.142 96.1604 374.016 96.4715 373.567 95.7282C373.398 95.3556 373.371 94.9346 373.49 94.5434C373.851 92.6361 374.46 90.6411 373.832 88.8043C372.884 86.0341 369.622 84.8974 366.74 84.3747C363.857 83.8521 360.621 83.4024 358.812 81.0999C358.328 80.3354 357.802 79.5976 357.238 78.8897C356.408 78.1356 355.389 77.6216 354.289 77.4029C350.71 76.4979 346.93 76.8331 343.567 78.3537C342.173 78.9895 340.772 79.8458 339.243 79.7489C337.654 79.6483 336.297 78.5309 334.728 78.259C332.195 77.8199 329.773 79.7168 328.524 81.9633C326.977 84.7468 326.835 88.5587 329.02 90.8756C330.111 92.0315 331.738 92.8255 332.19 94.3482C332.375 94.968 332.332 95.6356 332.495 96.2613C332.685 96.8842 333.047 97.4408 333.54 97.8668C334.033 98.2928 334.636 98.571 335.28 98.6692C336.829 98.9214 338.14 98.2121 339.278 97.2466Z" fill="#363636"/>
<path d="M314.907 191.694C315.284 192.662 315.869 193.536 316.621 194.254C317.372 194.971 318.272 195.516 319.257 195.848C320.242 196.181 321.288 196.294 322.321 196.179C323.354 196.064 324.35 195.724 325.237 195.183L360.821 213.98L361.973 205.318L327.397 184.943C326.389 183.513 324.89 182.503 323.186 182.103C321.482 181.703 319.691 181.942 318.151 182.774C316.612 183.607 315.431 184.974 314.833 186.618C314.235 188.262 314.261 190.068 314.907 191.694V191.694Z" fill="#9F616A"/>
<path d="M362.326 193.192C361.746 194.054 360.983 194.779 360.093 195.315C359.202 195.851 358.205 196.185 357.171 196.294C356.137 196.403 355.092 196.285 354.109 195.947C353.126 195.609 352.229 195.059 351.482 194.337L312.645 204.899L312.983 193.901L351.616 183.873C352.913 182.699 354.596 182.04 356.347 182.023C358.097 182.006 359.793 182.63 361.113 183.779C362.433 184.928 363.285 186.52 363.509 188.255C363.732 189.99 363.311 191.746 362.326 193.192Z" fill="#9F616A"/>
<path d="M377.419 147.704L384.991 147.229C384.991 147.229 393.857 158.92 388.939 171.605C388.939 171.605 389.791 217.174 370.155 215.302C350.519 213.431 344.314 213.431 344.314 213.431L350.208 197.001L363.394 192.932C363.394 192.932 359.33 175.018 367.023 167.564L377.419 147.704Z" fill="#CBCBCB"/>
<path d="M322.739 147.303L321.669 141.821C321.669 141.821 305.885 141.45 302.764 165.351C302.764 165.351 288.571 201.12 302.483 205.725C316.395 210.331 331.698 205.725 331.698 205.725L330.545 189.951L315.238 186.829C315.238 186.829 323.145 176.606 318.84 167.738L322.739 147.303Z" fill="#CBCBCB"/>
<path d="M474.38 414H237.996C237.832 414 237.674 413.935 237.558 413.818C237.441 413.702 237.376 413.544 237.376 413.38C237.376 413.216 237.441 413.058 237.558 412.942C237.674 412.825 237.832 412.76 237.996 412.76H474.38C474.544 412.76 474.702 412.825 474.818 412.942C474.935 413.058 475 413.216 475 413.38C475 413.544 474.935 413.702 474.818 413.818C474.702 413.935 474.544 414 474.38 414Z" fill="#CBCBCB"/>
</g>
<defs>
<clipPath id="clip0_14_244">
<rect width="475" height="414" fill="white"/>
</clipPath>
</defs>
</svg>
